PathFileType	4	(X/Y/Z)	../Python\walking\Walking03\task.trc
DataRate	CameraRate	NumFrames	NumMarkers	Units	OrigDataRate	OrigDataStartFrame	OrigNumFrames
200.000000	200.000000	7	30	mm	200.000000	587	671
Frame#	Time	CLAV			STRN			RASI			LASI			RTH1			RTH2			RTH3			RTB1			RTB2			RTB3			RD5M			RTOE			LTH1			LTH2			LTB1			LTB2			LTB3			LTOE			LD5M			LTH3			RHEE			RPSI			T10			PE03			PE02			PE01			C7			LPSI			LHEE			RBAK			
		X1	Y1	Z1	X2	Y2	Z2	X3	Y3	Z3	X4	Y4	Z4	X5	Y5	Z5	X6	Y6	Z6	X7	Y7	Z7	X8	Y8	Z8	X9	Y9	Z9	X10	Y10	Z10	X11	Y11	Z11	X12	Y12	Z12	X13	Y13	Z13	X14	Y14	Z14	X15	Y15	Z15	X16	Y16	Z16	X17	Y17	Z17	X18	Y18	Z18	X19	Y19	Z19	X20	Y20	Z20	X21	Y21	Z21	X22	Y22	Z22	X23	Y23	Z23	X24	Y24	Z24	X25	Y25	Z25	X26	Y26	Z26	X27	Y27	Z27	X28	Y28	Z28	X29	Y29	Z29	X30	Y30	Z30	

588	2.935	2492.693359375001	1436.600830078125	190.3775939941407	2548.254882812501	1243.16845703125	195.5012359619142	2526.792236328126	1035.212524414063	347.1146545410157	2523.982421875001	1011.477661132813	72.20574951171878	2485.154541015626	773.0271606445317	377.4253234863282	2427.041503906251	749.9261474609377	377.5701904296876	2445.675048828126	706.3059082031252	359.9320068359376	2435.801757812501	364.3768920898439	302.1131896972657	2392.427001953126	321.2378234863282	303.3033752441407	2425.020263671876	286.6074523925782	289.2210083007814	2482.454345703126	10.78107738494873	280.600555419922	2542.943847656251	24.79574012756349	236.4513092041017	2512.562988281251	704.1365356445315	45.35273361206056	2504.536132812501	659.7684326171877	67.8507995605469	2502.004882812501	423.4483337402346	60.7358322143555	2456.305175781251	409.8860778808596	74.94276428222659	2470.760253906251	350.9332275390626	62.12744522094729	2403.937988281251	66.09864807128909	93.98989105224612	2362.728759765626	82.80924987792972	57.12949371337893	2560.590820312501	641.9135742187502	49.72644805908206	2325.103759765626	24.63022041320802	196.8144378662111	2360.813476562501	1076.223022460938	257.7377319335939	2320.397949218751	1262.835693359375	191.3444061279297	2350.459960937501	1057.776733398438	185.0334167480469	2354.876953125001	1061.874145507813	235.9380798339845	2367.127441406251	1118.750366210938	203.9691619873048	2370.686767578126	1521.5087890625	181.4689483642579	2356.362304687501	1068.859375	158.0712280273438	2252.227294921876	199.3257751464845	128.1675415039063	2358.972900390626	1437.212158203125	356.077362060547	
589	2.94	2498.746582031251	1436.6005859375	190.5835266113282	2554.070800781251	1243.138427734375	195.9184722900392	2531.713378906251	1034.858154296875	347.7036132812501	2530.087890625001	1011.912170410157	72.86872863769534	2488.834228515626	772.6274414062505	377.4643554687501	2430.668945312501	749.8152465820315	377.412078857422	2449.096191406251	706.102233886719	359.835906982422	2437.622070312501	364.2691345214845	301.8301696777345	2394.003906250001	321.3807678222657	302.9472045898439	2426.431396484376	286.5663146972657	288.9217834472657	2482.445312500001	10.73983097076416	280.6487121582032	2543.112304687501	24.72568321228029	236.5049285888673	2521.956054687501	705.444030761719	44.67784500122072	2514.028564453126	660.8394775390627	66.69919586181643	2514.438476562501	422.3891601562502	60.59032058715823	2468.966064453126	407.8669433593752	74.57268524169925	2484.858642578126	349.1875305175782	62.44533538818362	2425.562011718751	64.01177978515628	94.27453613281253	2383.862548828126	79.42971801757815	57.39933776855472	2570.604736328126	643.7781372070315	49.58474731445315	2325.185791015626	24.89747428894044	196.5720062255861	2366.167236328126	1076.184814453125	257.3058471679689	2326.262207031251	1263.049072265625	191.698715209961	2356.095703125001	1057.980102539063	184.5134735107422	2360.327148437501	1061.8984375	235.4430236816407	2372.784423828126	1118.859741210938	203.7120513916017	2376.844970703126	1521.584838867188	181.6406555175782	2362.114746093751	1069.119750976563	157.5926513671876	2269.564941406251	192.3023071289064	128.2652435302735	2365.156005859376	1437.490600585938	356.4253540039064	
590	2.945	2504.800048828126	1436.569580078125	190.7910614013672	2559.892089843751	1243.08056640625	196.3273162841798	2536.657226562501	1034.470703125	348.2446899414064	2536.186035156251	1012.301879882813	73.48887634277347	2492.501464843751	772.2204589843755	377.486541748047	2434.290283203126	749.6953735351565	377.245086669922	2452.502441406251	705.8867187500002	359.7315673828126	2439.425781250001	364.1555480957032	301.5451965332032	2395.563476562501	321.5219726562501	302.5819702148439	2427.828613281251	286.5225524902345	288.6155090332032	2482.435302734376	10.70765209197998	280.689178466797	2543.270996093751	24.66209793090822	236.5533142089845	2531.274658203126	706.7490234375002	43.99019241333009	2523.445800781251	661.9210205078127	65.5402526855469	2526.798828125001	421.2022094726565	60.4194259643555	2481.582519531251	405.6914978027346	74.17156219482425	2498.954833984376	347.3254394531251	62.76999282836917	2447.312011718751	61.90186691284183	94.61766052246097	2405.161621093751	75.99358367919925	57.72111892700198	2580.508056640626	645.6250610351565	49.4554138183594	2325.269775390626	25.16520309448244	196.3244171142579	2371.539306640626	1076.126953125	256.8845825195314	2332.131835937501	1263.229370117188	192.0285491943361	2361.745605468751	1058.1494140625	184.0091400146485	2365.790771484376	1061.897705078125	234.9581298828126	2378.449951171876	1118.938598632813	203.4560852050782	2383.001708984376	1521.624633789063	181.8106994628907	2367.877929687501	1069.341674804688	157.1291046142579	2287.170410156251	185.1076660156251	128.3982696533204	2371.332519531251	1437.730224609375	356.7606811523439	
591	2.95	2510.854980468751	1436.50634765625	190.9992675781251	2565.719238281251	1242.992797851563	196.7261657714845	2541.626953125001	1034.04931640625	348.7373657226564	2542.276367187501	1012.646423339844	74.06354522705081	2496.162109375001	771.805541992188	377.4904785156251	2437.908203125001	749.566833496094	377.0694274902345	2455.898193359376	705.6602172851565	359.6190185546876	2441.215087890626	364.0375061035157	301.258270263672	2397.106689453126	321.6618041992189	302.2085571289064	2429.212402343751	286.4766845703126	288.3025207519532	2482.425048828126	10.68543243408203	280.721160888672	2543.418945312501	24.60476493835451	236.5963134765626	2540.506103515626	708.043640136719	43.29709243774415	2532.776611328126	663.007019042969	64.38842773437503	2539.084472656251	419.8961181640627	60.23177719116214	2494.156982421876	403.369567871094	73.75180816650393	2513.044921875001	345.3616333007814	63.09703063964847	2469.182128906251	59.79219055175784	95.01215362548831	2426.621337890626	72.5266036987305	58.08948135375979	2590.286132812501	647.4425048828127	49.33831024169925	2325.358154296876	25.43349838256837	196.0702209472657	2376.931884765626	1076.048706054688	256.4767456054689	2338.006591796876	1263.375854492188	192.3341522216798	2367.410888671876	1058.28369140625	183.5231933593751	2371.269287109376	1061.870971679688	234.4864196777345	2384.124755859376	1118.986328125	203.2038421630861	2389.158203125001	1521.62744140625	181.9786071777344	2373.652343750001	1069.5244140625	156.6835021972657	2305.047607421876	177.7659606933594	128.568344116211	2377.503173828126	1437.929565429688	357.0830383300782	
592	2.955	2516.911621093751	1436.409545898438	191.2072906494141	2571.552490234376	1242.873413085938	197.1136474609376	2546.625244140626	1033.593383789063	349.1818237304689	2548.360351562501	1012.945373535157	74.59091949462893	2499.822265625001	771.3818969726567	377.4751892089845	2441.527099609376	749.429870605469	376.8856811523439	2459.288330078126	705.4235839843752	359.4983520507814	2442.992187500001	363.9165039062501	300.9691772460939	2398.636230468751	321.8005981445314	301.8279418945314	2430.584716796876	286.4293212890626	287.9827575683595	2482.414062500001	10.673978805542	280.7436523437501	2543.556884765626	24.55332183837892	236.6339263916017	2549.638916015626	709.3193359375002	42.60593032836915	2542.009765625001	664.0905761718752	63.25835800170901	2551.293212890626	418.4791259765627	60.03633880615237	2506.689941406251	400.9106445312502	73.32678985595706	2527.123291015626	343.3104248046876	63.4218559265137	2491.165283203126	57.70697021484378	95.45057678222659	2448.236083984376	69.05549621582034	58.49871063232425	2599.924804687501	649.2178344726565	49.23271179199222	2325.453613281251	25.70286178588869	195.807342529297	2382.345703125001	1075.949096679688	256.0842895507814	2343.886718750001	1263.487426757813	192.6158447265626	2373.092773437501	1058.3818359375	183.0574493408204	2376.763916015626	1061.8173828125	234.0300140380861	2389.810058593751	1119.002075195313	202.9571685791017	2395.315429687501	1521.592407226563	182.1438751220704	2379.438964843751	1069.666748046875	156.2578125000001	2323.198730468751	170.3026275634766	128.7760925292969	2383.669433593751	1438.087280273438	357.392303466797	
593	2.96	2522.971191406251	1436.27783203125	191.4142761230469	2577.392089843751	1242.720581054688	197.4884643554689	2551.653808593751	1033.102905273438	349.5788574218751	2554.439208984376	1013.198059082032	75.06999206542972	2503.489990234376	770.9485473632817	377.4401245117189	2445.151367187501	749.2844238281252	376.6946411132814	2462.678955078126	705.1774902343752	359.3697814941407	2444.760253906251	363.7941894531251	300.6774902343751	2400.155273437501	321.938690185547	301.440887451172	2431.947998046876	286.3813476562501	287.6558837890626	2482.402343750001	10.67404556274414	280.755340576172	2543.684570312501	24.50728416442873	236.6662139892579	2558.661865234376	710.5672607421877	41.92413711547853	2551.135009765626	665.1641845703127	62.16438293457034	2563.420654296876	416.9591064453127	59.84231948852542	2519.180664062501	398.324157714844	72.91056060791018	2541.183349609376	341.185760498047	63.73982238769534	2513.253906250001	55.67099380493167	95.92545318603518	2469.999267578126	65.60750579833987	58.94295501708987	2609.410400390626	650.9376220703127	49.13768386840823	2325.558593750001	25.97420120239259	195.5330047607423	2387.782226562501	1075.827026367188	255.7082519531251	2349.771972656251	1263.563232421875	192.8740997314454	2378.792480468751	1058.442504882813	182.612777709961	2382.276123046876	1061.735595703125	233.5902404785157	2395.506103515626	1118.984497070313	202.7171783447267	2401.473632812501	1521.518798828125	182.3060607910157	2385.239257812501	1069.767700195313	155.8531036376954	2341.625000000001	162.7445678710938	129.0209503173829	2389.832519531251	1438.2021484375	357.6883544921876	
594	2.965	2529.034423828126	1436.109741210938	191.6194000244141	2583.238525390626	1242.532592773438	197.8495025634767	2556.714355468751	1032.578125	349.9298400878907	2560.514404296876	1013.403930664063	75.50053405761722	2507.172363281251	770.5046386718755	377.3851013183595	2448.787353515626	749.130310058594	376.4974365234376	2466.077392578126	704.9226684570315	359.2333374023439	2446.522949218751	363.672088623047	300.382537841797	2401.667968750001	322.0765380859376	301.0479125976564	2433.305664062501	286.333709716797	287.3211059570314	2482.390136718751	10.68635177612305	280.7545166015626	2543.802490234376	24.46607398986818	236.6932678222657	2567.564697265626	711.7778930664065	41.25919723510744	2560.141113281251	666.2191162109377	61.12007904052737	2575.461914062501	415.3433837890627	59.65896606445315	2531.628173828126	395.6192626953127	72.51746368408206	2555.216552734376	339.0010986328126	64.04644012451175	2535.438720703126	53.70920181274417	96.42951965332037	2491.903076171876	62.20989227294925	59.41646575927737	2618.730957031251	652.588073730469	49.05247879028323	2325.675292968751	26.24881553649904	195.2437438964845	2393.242187500001	1075.680786132813	255.3488769531251	2355.662353515626	1263.602416992188	193.1094360351564	2384.510253906251	1058.464477539063	182.1892700195313	2387.806396484376	1061.624267578125	233.1676330566407	2401.213623046876	1118.932739257813	202.4842681884767	2407.634277343751	1521.406127929688	182.4646606445313	2391.053955078126	1069.826049804688	155.4695434570313	2360.325683593751	155.1200714111329	129.3010711669922	2395.993652343751	1438.27294921875	357.9711914062501	
